<?xml version="1.0" standalone="no"?><!DOCTYPE svg PUBLIC "-//W3C//DTD SVG 1.1//EN" "http://www.w3.org/Graphics/SVG/1.1/DTD/svg11.dtd"><svg t="1615035484623" class="icon" viewBox="0 0 1024 1024" version="1.1" xmlns="http://www.w3.org/2000/svg" p-id="19347" xmlns:xlink="http://www.w3.org/1999/xlink" width="200" height="200"><defs><style type="text/css"></style></defs><path d="M803.8 667c21.4-26.7 39-56.2 52.4-87.9 19.6-46.2 29.5-95.4 29.5-146s-9.9-99.7-29.5-146c-18.9-44.7-45.9-84.7-80.3-119.2-34.4-34.4-74.5-61.5-119.2-80.3-46.2-19.6-95.4-29.5-146-29.5S411 68 364.7 87.6c-44.7 18.9-84.7 45.9-119.2 80.3-34.4 34.4-61.5 74.5-80.3 119.2-19.6 46.2-29.5 95.4-29.5 146 0 85.2 28.9 167.4 81.7 233.6l-76.1 121.5-0.2 0.3c-10.7 17.5-11 39.4-0.7 57.2 10.3 17.8 29.4 28.5 49.9 28l50.5-1.2 29.3 55c9.4 17.7 27.7 29.1 47.8 29.6h1.6c19.4 0 37.6-10.2 47.8-26.8L443.5 802c22 4 44.4 6 67.2 6 22.3 0 44.3-1.9 65.9-5.8l74.2 126.5 0.3 0.6c10.2 16.6 28.4 26.8 47.8 26.8h1.6c20-0.6 38.4-11.9 47.8-29.6l29.3-55 50.5 1.2c20.6 0.5 39.6-10.2 49.9-28 10.3-17.8 10-39.7-0.7-57.2L803.8 667zM320.3 870.1L283 800.2l-66 1.6 51.6-82.4c25.7 21.8 54.2 40 85.2 54.3 6.2 2.9 12.5 5.6 18.8 8.1l-52.3 88.3z m115.8-142.5c-0.7-0.2-1.4-0.4-2.1-0.5-17.2-4.5-34-10.5-50.3-18-38.6-17.8-72.5-43.1-100.8-75.2-48.9-55.4-75.8-126.7-75.8-200.7 0-81.1 31.6-157.4 88.9-214.7s133.6-88.9 214.7-88.9 157.4 31.6 214.7 88.9 88.9 133.6 88.9 214.7-31.6 157.4-88.9 214.7-133.6 88.9-214.7 88.9c-25.4 0-50.4-3.1-74.6-9.2z m299.4 71.6l-37.2 69.7-50.7-86.6c3.1-1.2 6.1-2.4 9.1-3.7 34.9-14.8 67-34.5 95.8-58.8l49.4 81.1-66.4-1.7z" p-id="19348"></path></svg>