<?xml version="1.0" standalone="no"?><!DOCTYPE svg PUBLIC "-//W3C//DTD SVG 1.1//EN" "http://www.w3.org/Graphics/SVG/1.1/DTD/svg11.dtd"><svg t="1615035417559" class="icon" viewBox="0 0 1024 1024" version="1.1" xmlns="http://www.w3.org/2000/svg" p-id="15709" xmlns:xlink="http://www.w3.org/1999/xlink" width="200" height="200"><defs><style type="text/css"></style></defs><path d="M659.2 441.6c-12.8 0-19.2 6.4-19.2 19.2 0 12.8 6.4 19.2 19.2 19.2 12.8 0 19.2-6.4 19.2-19.2C678.4 454.4 672 441.6 659.2 441.6M659.2 704c12.8 0 19.2-6.4 19.2-19.2 0-12.8-6.4-19.2-19.2-19.2-12.8 0-19.2 6.4-19.2 19.2C640 697.6 652.8 704 659.2 704zM934.4 563.2 569.6 563.2 569.6 172.8c0-32 25.6-57.6 57.6-57.6l236.8 0c32 0 57.6 25.6 57.6 57.6L921.6 563.2zM934.4 851.2c0 32-25.6 57.6-57.6 57.6L633.6 908.8c-32 0-57.6-25.6-57.6-57.6l0-256 358.4 0L934.4 851.2zM870.4 83.2 633.6 83.2c-51.2 0-89.6 38.4-89.6 89.6l0 684.8c0 51.2 38.4 89.6 89.6 89.6l236.8 0c51.2 0 89.6-38.4 89.6-89.6L960 172.8C960 121.6 921.6 83.2 870.4 83.2zM153.6 358.4l0 25.6 230.4 0L384 358.4 153.6 358.4zM153.6 268.8l0 25.6 230.4 0L384 268.8 153.6 268.8zM153.6 172.8l0 25.6 230.4 0L384 172.8 153.6 172.8zM454.4 851.2c0 32-25.6 57.6-57.6 57.6L153.6 908.8c-32 0-57.6-25.6-57.6-57.6L96 172.8c0-32 25.6-57.6 57.6-57.6l236.8 0c32 0 57.6 25.6 57.6 57.6L448 851.2zM390.4 83.2 153.6 83.2C102.4 83.2 64 121.6 64 172.8l0 684.8c0 51.2 38.4 89.6 89.6 89.6l236.8 0c51.2 0 89.6-38.4 89.6-89.6l0-684.8C480 121.6 441.6 83.2 390.4 83.2z" p-id="15710"></path></svg>