<?xml version="1.0" standalone="no"?><!DOCTYPE svg PUBLIC "-//W3C//DTD SVG 1.1//EN" "http://www.w3.org/Graphics/SVG/1.1/DTD/svg11.dtd"><svg t="1615035426559" class="icon" viewBox="0 0 1024 1024" version="1.1" xmlns="http://www.w3.org/2000/svg" p-id="15969" xmlns:xlink="http://www.w3.org/1999/xlink" width="200" height="200"><defs><style type="text/css"></style></defs><path d="M529.075399 63.978127c57.933457 0 114.12934 11.343349 167.027108 33.716916 51.101865 21.614274 97.002264 52.5611 136.425136 91.980901 39.421848 39.420825 70.373791 85.319178 91.991134 136.420019 22.376637 52.896744 33.723056 109.09672 33.723056 167.040411 0 57.936527-11.346419 114.12934-33.723056 167.025061-21.618367 51.096748-52.569286 96.992031-91.991134 136.411833-39.422871 39.418778-85.326341 70.365604-136.425136 91.977831-52.894697 22.37152-109.090581 33.715893-167.027108 33.715893-57.936527 0-114.130364-11.343349-167.021991-33.715893-51.096748-21.611204-96.987938-52.555983-136.40774-91.976808-39.416731-39.418778-70.361511-85.313038-91.974761-136.411833-22.369473-52.892651-33.712823-109.087511-33.712823-167.026084 0-57.944713 11.343349-114.145713 33.713846-167.041434 21.61325-51.101865 52.557006-97.000218 91.974761-136.420019 39.418778-39.418778 85.310991-70.366627 136.406716-91.979878C414.945035 75.321476 471.138872 63.978127 529.075399 63.978127M529.075399 43.512003c-248.28683 0-449.583438 201.302749-449.583438 449.624371 0 248.295016 201.296609 449.593671 449.583438 449.593671 248.281713 0 449.635627-201.301725 449.635627-449.593671C978.711026 244.814752 777.357112 43.512003 529.075399 43.512003L529.075399 43.512003z" p-id="15970"></path><path d="M684.850232 254.797104 364.249423 254.797104c-16.146749 0-29.388331 13.240559-29.388331 29.435403l0 61.7289 379.425565 0 0-61.7289C714.286658 268.037662 701.044052 254.797104 684.850232 254.797104zM638.077975 332.243987c-16.432251 0-29.817096-13.33675-29.817096-29.817096 0-16.385179 13.384845-29.767977 29.817096-29.767977 16.479323 0 29.816073 13.383822 29.816073 29.767977C667.893025 318.907237 654.557298 332.243987 638.077975 332.243987z" p-id="15971"></path><path d="M334.862115 689.852664c0 16.193821 13.240559 29.437449 29.388331 29.437449l320.599785 0c16.193821 0 29.437449-13.242606 29.437449-29.437449L714.287681 367.205243 334.862115 367.205243 334.862115 689.852664zM674.942581 582.780043c-21.529339 0-43.057655 0-64.632019 0 5.428639-29.67281 5.761214-59.34562 0-88.973404 21.574365 0 43.10268 0 64.632019 0C681.706635 522.574846 682.087305 552.153512 674.942581 582.780043zM526.00241 397.069411c56.918337 0 105.977683 33.626865 128.412648 82.162278L610.310561 479.231689l-1.430582 0c-18.527982-25.815969-48.724725-42.678008-82.876546-42.678008-56.30026 0-101.880365 45.630247-101.880365 101.929484 0 56.203046 45.580105 101.882412 101.880365 101.882412 34.295084 0 64.635089-17.004279 83.115999-42.962487l1.192152 0 44.246737 0c-22.336728 48.628534-71.492264 82.44778-128.554888 82.44778-78.06496 0-141.462872-63.301721-141.462872-141.366681C384.539538 460.369086 447.93745 397.069411 526.00241 397.069411zM514.238482 624.029516c-42.104957-5.765307-74.590835-41.868573-74.590835-85.546352 0-33.484625 19.052938-62.491263 46.820352-76.875878-8.478092 18.147312-13.33675 39.628556-13.33675 62.681598C473.132272 566.491055 489.565547 603.40478 514.238482 624.029516z" p-id="15972"></path></svg>