<?xml version="1.0" standalone="no"?><!DOCTYPE svg PUBLIC "-//W3C//DTD SVG 1.1//EN" "http://www.w3.org/Graphics/SVG/1.1/DTD/svg11.dtd"><svg t="1615035307339" class="icon" viewBox="0 0 1024 1024" version="1.1" xmlns="http://www.w3.org/2000/svg" p-id="9632" xmlns:xlink="http://www.w3.org/1999/xlink" width="200" height="200"><defs><style type="text/css"></style></defs><path d="M828.586667 410.666667l-35.626667-130.346667A149.333333 149.333333 0 0 0 648.96 170.666667H375.04a149.333333 149.333333 0 0 0-144 110.08l-35.626667 129.92A149.333333 149.333333 0 0 0 85.333333 554.666667v212.053333A87.68 87.68 0 0 0 172.8 853.333333h38.4a87.68 87.68 0 0 0 87.466667-87.466666V746.666667h426.666666v19.413333A87.68 87.68 0 0 0 812.8 853.333333h38.613333A87.466667 87.466667 0 0 0 938.666667 766.293333V554.666667a149.333333 149.333333 0 0 0-110.08-144zM896 766.293333A44.8 44.8 0 0 1 851.413333 810.666667H812.8a44.8 44.8 0 0 1-44.8-44.8v-18.56h128zM272.213333 291.413333A106.666667 106.666667 0 0 1 375.04 213.333333h273.92a106.666667 106.666667 0 0 1 102.826667 78.506667L782.72 405.333333H241.28zM256 765.653333A45.013333 45.013333 0 0 1 211.2 810.666667H172.8A45.013333 45.013333 0 0 1 128 765.653333V746.666667h128zM128 704v-149.333333a105.386667 105.386667 0 0 1 105.173333-106.666667h557.653334A105.386667 105.386667 0 0 1 896 554.666667v149.333333H128z" p-id="9633"></path><path d="M292.053333 501.333333a82.56 82.56 0 0 0-111.573333 33.92A81.28 81.28 0 0 0 174.293333 597.333333 80.213333 80.213333 0 0 0 213.333333 646.613333a87.253333 87.253333 0 0 0 45.44 8.533334 379.306667 379.306667 0 0 0 62.293334-5.973334 42.666667 42.666667 0 0 0 31.786666-59.52c-31.573333-72.533333-54.186667-84.266667-60.8-88.32zM234.666667 609.066667a39.68 39.68 0 0 1 18.986666-74.666667 39.253333 39.253333 0 0 1 18.56 4.693333c7.68 4.053333 23.253333 24.106667 42.666667 68.053334-47.36 7.893333-72.96 5.973333-80.213333 1.92zM730.88 501.333333c-7.253333 4.053333-29.226667 15.786667-61.866667 88.533334a42.666667 42.666667 0 0 0 1.28 37.333333 42.666667 42.666667 0 0 0 30.506667 21.333333 381.226667 381.226667 0 0 0 62.293333 5.973334 86.613333 86.613333 0 0 0 45.44-8.533334 82.346667 82.346667 0 0 0-77.653333-145.28zM789.333333 609.066667c-7.68 4.053333-33.28 5.973333-80.426666-1.92 19.626667-43.733333 35.413333-64 42.666666-68.053334a38.4 38.4 0 0 1 30.293334-2.986666 38.826667 38.826667 0 0 1 23.466666 19.2 39.68 39.68 0 0 1-16 53.76z" p-id="9634"></path></svg>