<?xml version="1.0" standalone="no"?><!DOCTYPE svg PUBLIC "-//W3C//DTD SVG 1.1//EN" "http://www.w3.org/Graphics/SVG/1.1/DTD/svg11.dtd"><svg t="1615035227098" class="icon" viewBox="0 0 1024 1024" version="1.1" xmlns="http://www.w3.org/2000/svg" p-id="5985" xmlns:xlink="http://www.w3.org/1999/xlink" width="200" height="200"><defs><style type="text/css"></style></defs><path d="M723.293659 410.099512c-43.257756 0-84.617366-8.092098-123.27961-24.076488-40.860098-16.883512-67.733854-38.062829-81.92-51.249951-52.548683 58.842537-159.144585 65.336195-210.894049 68.433171-2.897171 0.199805-5.694439 0.299707-8.491707 0.499512 9.990244 119.58322-74.227512 236.169366-119.98283 292.714146 101.700683 190.214244 303.004098 258.747317 333.873952 263.143025C691.724488 913.108293 811.207805 760.557268 850.968976 698.617756c-97.50478-101.700683-115.786927-209.69522-124.977952-288.518244H723.293659z" p-id="5986"></path><path d="M844.775024 137.665561c-16.883512-23.177366-56.54478-45.955122-149.254244-22.977561-66.734829 16.483902-135.867317 50.750439-178.325853 77.324488-0.79922 0.499512-1.698341 0.79922-2.697366 0.799219-1.098927 0-2.197854-0.39961-3.096976-1.098927-36.06478-28.372293-76.425366-49.351805-119.783024-62.339121-34.766049-10.389854-71.630049-15.784585-109.493073-15.884488-64.536976-0.299707-110.092488 14.785561-110.492098 14.985366-0.79922 0.299707-1.598439 0.299707-2.397658 0.199804-24.875707 148.455024 71.729951 228.476878 123.479414 265.440781 3.896195-0.299707 8.391805-0.599415 13.786537-0.899122 51.549659-3.096976 158.94478-9.590634 207.397463-68.83278 0.899122-1.098927 2.197854-1.798244 3.596488-1.798244 1.398634-0.099902 2.797268 0.39961 3.796293 1.398634 9.790439 9.690537 37.563317 34.166634 82.519414 52.84839 37.962927 15.684683 78.523317 23.477073 121.081757 23.277268 160.043707-113.089561 134.868293-213.79122 124.878048-260.445658-1.798244 0.39961-3.796293-0.299707-4.995122-1.998049z" p-id="5987"></path><path d="M873.147317 108.194341C766.951024-13.386927 512.699317 156.846829 512.699317 156.846829 360.148293 33.067707 176.227902 72.828878 155.847805 95.00722c-17.682732 19.181268-2.497561 30.070634 9.191024 29.571121-0.499512-2.397659 0.899122-4.89522 3.296781-5.694439 1.898146-0.599415 47.653463-15.784585 113.788878-15.484878 38.862049 0.199805 76.625171 5.694439 112.290341 16.384 43.557463 12.987317 84.017951 33.866927 120.382439 61.939513 43.257756-26.673951 111.890732-60.241171 178.225952-76.725074 77.724098-19.181268 132.870244-9.990244 159.744 26.773854 0.899122 1.298732 1.098927 2.797268 0.799219 4.195903 22.378146 4.695415 26.374244-16.384 19.580878-27.772879z" p-id="5988"></path></svg>