<?xml version="1.0" standalone="no"?><!DOCTYPE svg PUBLIC "-//W3C//DTD SVG 1.1//EN" "http://www.w3.org/Graphics/SVG/1.1/DTD/svg11.dtd"><svg t="1615035396286" class="icon" viewBox="0 0 1024 1024" version="1.1" xmlns="http://www.w3.org/2000/svg" p-id="14853" xmlns:xlink="http://www.w3.org/1999/xlink" width="200" height="200"><defs><style type="text/css"></style></defs><path d="M798.5 617.3c-4.6 0-9.2 0.2-13.8 0.6 13.6-17.5 25-36.4 34.3-56.3 17.2-37 26-76.2 26.2-116.7 3.8-1 7.5-2.8 10.9-5.3 80.9-60.9 97.1-176.4 36.1-257.3-29.5-39.2-72.6-64.5-121.2-71.4-48.6-6.8-97 5.7-136.2 35.3-4.2 3.2-7.4 7.1-9.5 11.6-34.4-11.1-71-16.8-108.5-16.8-34.8 0-68.9 5-101.1 14.5-2.1-3.5-4.8-6.7-8.3-9.3-39.2-29.6-87.5-42.1-136.2-35.3-48.6 6.8-91.6 32.2-121.2 71.4-29.5 39.2-42 87.5-35.3 136.1 6.8 48.6 32.1 91.7 71.4 121.2 0.7 0.6 1.5 1.1 2.3 1.6v1.9c0 41.2 8.8 81.1 26.3 118.6 8.9 19.3 19.9 37.4 32.9 54.4-7.2-1.1-14.6-1.6-22.1-1.6-82 0-148.8 66.8-148.8 148.8S143.5 912 225.5 912s148.8-66.8 148.8-148.8c0-18.4-3.4-36-9.5-52.3 46.4 22.3 98.3 34.2 152.1 34.2 49.8 0 97.9-10.2 141.6-29.4-5.7 15.7-8.8 32.7-8.8 50.4 0 82 66.8 148.8 148.8 148.8s148.8-66.8 148.8-148.8-66.8-148.8-148.8-148.8z m-36.3-443c31.7 4.4 59.7 21 79 46.5 34.6 45.9 31.1 108.8-5.1 150.6-4.2-16-9.9-31.7-17-46.9-16.7-36-40.6-68.4-71-96-17.6-16.1-36.9-30.1-57.5-41.9 21.8-11.5 46.7-15.8 71.6-12.3zM178.3 309.5c-4.4-31.7 3.7-63.2 23-88.8 19.2-25.5 47.3-42 79-46.5 23.2-3.3 46.3 0.3 67 9.9-22.1 12.3-42.7 27-61.5 44.2-30.4 27.7-54.3 60-71 96-5.9 12.8-10.8 25.8-14.7 39-11.6-15.6-19.1-34-21.8-53.8zM225.5 848c-46.8 0-84.8-38-84.8-84.8s38-84.8 84.8-84.8 84.8 38 84.8 84.8-38 84.8-84.8 84.8z m27-405c0-131.3 118.6-238.1 264.4-238.1 145.8 0 264.4 106.8 264.4 238.1S662.7 681.1 516.9 681.1c-145.8 0-264.4-106.8-264.4-238.1z m546 407.9c-46.8 0-84.8-38-84.8-84.8s38-84.8 84.8-84.8 84.8 38 84.8 84.8-38 84.8-84.8 84.8z" p-id="14854"></path><path d="M371.702878 460.705648a40.6 40.6 0 1 0 79.026687-18.660729 40.6 40.6 0 1 0-79.026687 18.660729Z" p-id="14855"></path><path d="M600.2 451.4m-40.6 0a40.6 40.6 0 1 0 81.2 0 40.6 40.6 0 1 0-81.2 0Z" p-id="14856"></path><path d="M505.7 531.3c-27.2 0-54.7 10.1-54.7 29.5 0 14.5 15.4 23.9 34.6 27.6v0.6c0.1 0.5 1.3 13.2-9.5 15.9-5.1 1.3-8.2 6.4-7 11.5 1.1 4.3 5 7.3 9.3 7.3 0.8 0 1.5-0.1 2.3-0.3 19.4-4.8 24.2-22.2 24.1-33.1h2.7c0.1 2.9 0.5 7 1.7 11.2 3.4 11.5 11.7 19.5 23.3 22.4 0.8 0.2 1.6 0.3 2.4 0.3 4.5 0 8.5-3 9.6-7.5 1.3-5.3-1.9-10.7-7.2-12.1-10.4-2.6-10.2-13.8-9.9-16.5 18.5-4 33.1-13.2 33.1-27.3-0.1-19.4-27.6-29.5-54.8-29.5z" p-id="14857"></path></svg>