<?xml version="1.0" standalone="no"?><!DOCTYPE svg PUBLIC "-//W3C//DTD SVG 1.1//EN" "http://www.w3.org/Graphics/SVG/1.1/DTD/svg11.dtd"><svg t="1615035429043" class="icon" viewBox="0 0 1024 1024" version="1.1" xmlns="http://www.w3.org/2000/svg" p-id="16101" xmlns:xlink="http://www.w3.org/1999/xlink" width="200" height="200"><defs><style type="text/css"></style></defs><path d="M904.752 53.264H119.248C53.504 53.264 0 106.768 0 172.528v509.44c0 65.768 53.504 119.28 119.248 119.28H480.56v101.72c0 1.72 0.72 3.224 0.984 4.88H102.056a31.44 31.44 0 0 0-31.44 31.44 31.44 31.44 0 0 0 31.44 31.448h819.888a31.424 31.424 0 0 0 31.44-31.448 31.424 31.424 0 0 0-31.44-31.44H542.464c0.256-1.656 0.976-3.168 0.976-4.88v-101.72h361.312c65.768 0 119.248-53.512 119.248-119.28v-509.44c0-65.76-53.488-119.264-119.248-119.264z m56.368 628.704c0 31.104-25.296 56.408-56.368 56.408H119.248c-31.088 0-56.368-25.304-56.368-56.408v-509.44c0-31.088 25.288-56.384 56.368-56.384h785.504c31.072 0 56.368 25.296 56.368 56.384v509.44z" fill="#838384" p-id="16102"></path></svg>