<?xml version="1.0" standalone="no"?><!DOCTYPE svg PUBLIC "-//W3C//DTD SVG 1.1//EN" "http://www.w3.org/Graphics/SVG/1.1/DTD/svg11.dtd"><svg t="1615035464330" class="icon" viewBox="0 0 1024 1024" version="1.1" xmlns="http://www.w3.org/2000/svg" p-id="18372" xmlns:xlink="http://www.w3.org/1999/xlink" width="200" height="200"><defs><style type="text/css"></style></defs><path d="M673.1264 132.2496H341.2992c-90.3168 0-163.84 73.5232-163.84 163.84v429.8752c0 90.3168 73.5232 163.84 163.84 163.84h331.8272c90.3168 0 163.84-73.5232 163.84-163.84V296.0896c0-90.3168-73.5232-163.84-163.84-163.84z m0 696.1152H341.2992c-56.4736 0-102.4-45.9264-102.4-102.4v-342.528c44.9536 31.3856 95.3344 54.8864 148.1728 68.864a30.78656 30.78656 0 0 0 37.5808-21.8624c4.352-16.384-5.4272-33.2288-21.8624-37.5296-60.2112-15.9232-116.7872-46.1312-163.8912-87.3984v-9.3696c0-56.4736 45.9264-102.4 102.4-102.4h331.8272c56.4736 0 102.4 45.9264 102.4 102.4v9.3696c-48.9472 42.9056-107.9296 73.728-170.752 89.1392a30.69952 30.69952 0 0 0-22.4768 37.1712 30.68416 30.68416 0 0 0 29.7984 23.3984c2.4064 0 4.9152-0.3072 7.3728-0.8704 55.7568-13.7216 108.8512-37.9392 156.0576-70.912v342.5792c0 56.4224-45.9264 102.3488-102.4 102.3488z" fill="#474747" p-id="18373"></path><path d="M505.9584 549.9904c-65.536 0-118.8352-53.2992-118.8352-118.8352S440.4224 312.32 505.9584 312.32s118.8352 53.2992 118.8352 118.8352-53.3504 118.8352-118.8352 118.8352z m0-176.2304c-31.6416 0-57.3952 25.7536-57.3952 57.3952s25.7536 57.3952 57.3952 57.3952 57.3952-25.7536 57.3952-57.3952S537.6 373.76 505.9584 373.76z" fill="#45CFFF" p-id="18374"></path></svg>