<?xml version="1.0" standalone="no"?><!DOCTYPE svg PUBLIC "-//W3C//DTD SVG 1.1//EN" "http://www.w3.org/Graphics/SVG/1.1/DTD/svg11.dtd"><svg t="1615035142234" class="icon" viewBox="0 0 1024 1024" version="1.1" xmlns="http://www.w3.org/2000/svg" p-id="4219" xmlns:xlink="http://www.w3.org/1999/xlink" width="200" height="200"><defs><style type="text/css"></style></defs><path d="M757.215 181.305h74.655c35.34 0 63.99 28.65 63.99 63.99v298.62c0 35.34-28.65 63.99-63.99 63.99h-74.655V725.22h-63.99V607.905H618.57c-35.34 0-63.99-28.65-63.99-63.99v-298.62c0-35.34 28.65-63.99 63.99-63.99h74.655V85.32h63.99v95.985z m-426.6 213.3h74.655c35.34 0 63.99 28.65 63.99 63.99v319.95c0 35.34-28.65 63.99-63.99 63.99h-74.655v95.985h-63.99v-95.985H191.97c-35.34 0-63.99-28.65-63.99-63.99v-319.95c0-35.34 28.65-63.99 63.99-63.99h74.655V298.62h63.99v95.985z m-138.645 63.99v319.95h213.3v-319.95h-213.3z m426.6-213.3v298.62h213.3v-298.62h-213.3z" p-id="4220"></path></svg>