<?xml version="1.0" standalone="no"?><!DOCTYPE svg PUBLIC "-//W3C//DTD SVG 1.1//EN" "http://www.w3.org/Graphics/SVG/1.1/DTD/svg11.dtd"><svg t="1615035372764" class="icon" viewBox="0 0 1024 1024" version="1.1" xmlns="http://www.w3.org/2000/svg" p-id="13492" xmlns:xlink="http://www.w3.org/1999/xlink" width="200" height="200"><defs><style type="text/css"></style></defs><path d="M223.36 683.093333a115.946667 115.946667 0 0 0 113.066667 89.173334h332.586666c53.973333 0 100.48-36.693333 113.066667-89.173334l48-201.6c14.72-60.8-22.826667-123.306667-83.2-139.306666l-41.6-11.093334V245.333333c0-41.173333-33.493333-74.666667-74.666667-74.666666h-96V117.333333c0-17.706667-14.293333-32-32-32s-32 14.293333-32 32V170.666667h-96c-41.173333 0-74.666667 33.493333-74.666666 74.666666v85.973334l-41.386667 10.88c-60.586667 16-97.92 78.506667-83.413333 139.306666l48.213333 201.6z m140.586667-437.76c0-5.973333 4.906667-10.666667 10.666666-10.666666h256c5.973333 0 10.666667 4.693333 10.666667 10.666666v68.906667l-109.013333-28.8c-19.413333-5.12-39.893333-5.12-59.306667 0l-109.013333 28.8V245.333333z m-89.173334 158.72l54.4-14.293333 160.213334-42.24c4.266667-1.28 8.746667-1.92 13.226666-1.92 4.48 0 8.96 0.64 13.44 1.92l160 42.24 54.4 14.293333c27.306667 7.253333 43.946667 35.2 37.546667 62.72l-48.213333 201.386667a52.032 52.032 0 0 1-50.773334 40.106667H336.426667a51.84 51.84 0 0 1-50.773334-40.106667l-48.213333-201.386667c-6.613333-27.52 10.24-55.466667 37.333333-62.72zM908.885333 802.410667a32.021333 32.021333 0 0 0-45.248 0.789333l-66.858666 69.269333a11.029333 11.029333 0 0 1-5.866667 2.965334c-2.026667-0.064-4.224-1.344-6.165333-3.605334l-28.842667-33.6c-13.802667-16.106667-32.576-25.322667-52.842667-25.92-20.181333-0.832-39.232 7.381333-53.802666 22.485334l-39.594667 41.002666c-3.648 3.818667-7.232 3.989333-10.922667 0.512l-51.157333-47.701333c-29.333333-27.349333-72.597333-26.154667-100.629333 2.858667l-41.344 42.837333c-2.602667 2.709333-8.832 2.730667-11.456-0.021333l-38.122667-39.488c-14.570667-15.104-33.728-23.232-53.802667-22.485334-20.266667 0.597333-39.04 9.813333-52.842666 25.92l-28.842667 33.6c-1.941333 2.24-4.138667 3.541333-6.165333 3.605334a9.877333 9.877333 0 0 1-5.866667-2.965334L141.696 803.2a32.021333 32.021333 0 0 0-46.037333 44.458667l66.858666 69.269333a72.277333 72.277333 0 0 0 53.781334 22.485333c20.266667-0.597333 39.04-9.792 52.864-25.92l28.864-33.6c1.941333-2.261333 4.117333-3.541333 6.144-3.605333 2.325333-0.064 4.522667 1.578667 5.866666 2.965333l38.101334 39.466667c28.010667 29.077333 75.562667 29.056 103.552 0.021333l41.322666-42.816c3.690667-3.797333 7.253333-3.925333 10.944-0.512l51.157334 47.701334a71.424 71.424 0 0 0 48.874666 19.754666c18.645333 0 37.269333-7.573333 51.754667-22.613333l39.573333-41.002667c1.344-1.365333 3.349333-3.072 5.866667-2.965333 2.026667 0.064 4.202667 1.344 6.165333 3.605333l28.842667 33.6c13.824 16.128 32.597333 25.322667 52.864 25.92a71.808 71.808 0 0 0 53.781333-22.485333l66.858667-69.269333a32 32 0 0 0-0.810667-45.248z" p-id="13493"></path></svg>