<?xml version="1.0" standalone="no"?><!DOCTYPE svg PUBLIC "-//W3C//DTD SVG 1.1//EN" "http://www.w3.org/Graphics/SVG/1.1/DTD/svg11.dtd"><svg t="1615035213002" class="icon" viewBox="0 0 1024 1024" version="1.1" xmlns="http://www.w3.org/2000/svg" p-id="5673" xmlns:xlink="http://www.w3.org/1999/xlink" width="200" height="200"><defs><style type="text/css"></style></defs><path d="M755.8 876.8c-18.7 0-36.4-8.2-48.9-22.5-12.5 14.3-30.1 22.5-48.8 22.5-18.7 0-36.3-8.2-48.9-22.5-12.5 14.3-30.1 22.5-48.8 22.5s-36.3-8.2-48.8-22.5c-12.5 14.3-30.1 22.5-48.8 22.5-18.5 0-36-8-48.5-22.1-12.5 14.1-30 22.1-48.5 22.1-18.7 0-36.3-8.2-48.8-22.5-12.5 14.3-30.1 22.5-48.9 22.5-35.9 0-65.1-29.2-65.1-65 0-2.2 0.4-4.3 1.3-6.3 0.3-0.8 0.8-1.4 1.2-1.9l0.8-1.3c0.4-0.7 0.8-1.4 1.5-2.1l161.6-161.5c30.1-40.8 32.5-96 31.9-119.4h-0.1c-42.4-15.7-70.9-56.7-70.9-101.9 0-40.2 21.9-76.6 57.3-95.4v-96c0.8-26.4 22-47.1 48.4-47.1s47.7 20.7 48.4 47.1v95.9c10 5.2 19.1 11.8 27 19.8 8-8 17.1-14.7 27.1-19.8V226c0-26.7 21.7-48.4 48.4-48.4s48.3 21.7 48.3 48.4v95.8c35.4 18.8 57.4 55.2 57.3 95.4-0.1 45.1-28.6 86-70.8 101.8l-0.2 0.1c-0.6 23.2 1.7 78.2 31.9 119.3l160.1 160c4.3 2.6 7.1 7.7 7.2 13.2 0.2 36-29 65.2-64.9 65.2z" p-id="5674"></path><path d="M236.2 817.9c0.4 11.9 7.1 22.5 17.8 28 4.5 2.3 9.7 3.5 14.8 3.5 6.9 0 13.5-2.1 19-6.1 9.9-7.2 15-19.1 13.1-31.2 0-9.3 7.3-16.5 16.2-16.5 8.9 0 16.2 7.3 16.2 16.2-0.3 17.5 13.2 32 30.7 33h1.8c16.8 0 30.7-12.7 32.3-29.4 0-0.2-0.1-0.7-0.2-1.2-0.1-0.8-0.2-1.6-0.2-2.4 0-4.3 1.7-8.5 4.7-11.5s7.2-4.8 11.5-4.8c5.1 0 9.3 1.7 12.3 4.8 3 3 4.8 7.2 4.8 11.5 0 0.8-0.1 1.7-0.2 2.5-0.1 0.5-0.1 1-0.2 1.5 0.2 11.8 6.9 22.6 17.4 28.1 4.6 2.4 9.8 3.7 15 3.7 6.5 0 12.7-1.9 18.1-5.5 9.9-6.6 15.3-18.1 14.2-30 0-6 3.1-11.4 8.1-14.3 2.5-1.4 5.3-2.2 8.1-2.2s5.7 0.8 8.1 2.2c5 2.9 8.1 8.3 8.1 14.1 0 18 14.6 32.6 32.6 32.6s32.6-14.6 32.6-32.6c0-9 7.3-16.3 16.3-16.3s16.3 7.3 16.3 16.3c0 18 14.6 32.6 32.6 32.6s32.6-14.6 32.6-32.6c0-5.8 3.1-11.2 8.1-14.1 2.5-1.4 5.3-2.2 8.1-2.2s5.7 0.8 8.1 2.2c5 2.9 8.1 8.3 8.1 14.1 0 17.9 14.7 32.5 32.6 32.5 15.4-0.1 28.6-10.8 31.9-25.7L634.7 665.5H388.5L236.2 817.9z" fill="#FFDC8B" p-id="5675"></path><path d="M612.5 633c-29.6-59.4-22.5-127-22.4-127.7 0.7-6.7 5.6-12.4 12.1-14 34.1-8.4 58-38.9 58.1-74 0.1-31-18.4-58.5-47-70.3-6.2-2.4-10.3-8.4-10.3-15V226c0-5.7-3-10.9-7.9-13.7-2.4-1.4-5.1-2.1-7.9-2.1s-5.5 0.7-7.9 2.1c-4.9 2.8-7.9 8.1-7.9 13.7v106c-0.1 0.9-0.2 1.5-0.4 1.9-0.6 4-2.1 7.1-4.5 9.6l-0.2 0.2-0.7 0.4c-1.2 1.1-2.7 2.1-4.4 2.8-14.9 5.9-27.2 15.9-35.9 29.1-1.2 1.9-2.8 3.4-4.6 4.6l-0.4 0.3-0.8 0.2c-1.8 1.2-4.6 2-7.4 2.1-3.4-0.1-6.2-0.9-8.6-2.4-2.5-1.4-4.1-3-5.3-4.8-8.7-13.2-21-23.3-35.7-29.1-1.7-0.8-3.1-1.7-4.3-2.8-0.3-0.2-0.7-0.4-1.1-0.7-1.1-1.1-1.8-2.3-2.5-3.4-0.6-0.8-0.8-1.2-1.1-1.6l-0.1-0.3-0.6-2.6c-0.3-1-0.7-2.2-0.7-3.5V226c0-8.8-7.1-15.9-15.9-15.9s-15.9 7.1-15.9 15.9v106c0 6.7-4 12.6-10.3 15.1-28.5 11.8-47 39.4-47 70.3 0.1 35.1 24.1 65.5 58.1 74 6.6 1.8 11.4 7.3 12.2 14 0.7 7.2 5.8 70.9-22.5 127.7h201.7z" fill="#FFC054" p-id="5676"></path></svg>