<?xml version="1.0" standalone="no"?><!DOCTYPE svg PUBLIC "-//W3C//DTD SVG 1.1//EN" "http://www.w3.org/Graphics/SVG/1.1/DTD/svg11.dtd"><svg t="1615035062278" class="icon" viewBox="0 0 1024 1024" version="1.1" xmlns="http://www.w3.org/2000/svg" p-id="2163" xmlns:xlink="http://www.w3.org/1999/xlink" width="200" height="200"><defs><style type="text/css"></style></defs><path d="M240 384c-61.76 0-112 43.056-112 96v320c0 52.944 50.24 96 112 96h656V512H240c-25.568 0-48-14.96-48-32s22.432-32 48-32h84s16-80 92-80 96 80 96 80h352v-64H240z" p-id="2164"></path><path d="M672 64a128 128 0 1 0 0 256 128 128 0 0 0 0-256z m0 192c-35.328 0-64-28.672-64-64s28.672-64 64-64 64 28.672 64 64-28.672 64-64 64zM416 320a128 128 0 0 0-128 128h64c0-35.328 28.672-64 64-64s64 28.672 64 64h64a128 128 0 0 0-128-128z" p-id="2165"></path></svg>