<?xml version="1.0" standalone="no"?><!DOCTYPE svg PUBLIC "-//W3C//DTD SVG 1.1//EN" "http://www.w3.org/Graphics/SVG/1.1/DTD/svg11.dtd"><svg t="1615035070867" class="icon" viewBox="0 0 1024 1024" version="1.1" xmlns="http://www.w3.org/2000/svg" p-id="2290" xmlns:xlink="http://www.w3.org/1999/xlink" width="200" height="200"><defs><style type="text/css"></style></defs><path d="M610.901333 514.389333a24.277333 24.277333 0 0 0 0-48.426666H557.226667l64.853333-75.52a24.234667 24.234667 0 0 0-2.688-34.048 24.234667 24.234667 0 0 0-34.048 2.645333L512 444.586667l-73.344-85.504a24.234667 24.234667 0 0 0-34.048-2.645334 24.234667 24.234667 0 0 0-2.688 34.048l64.853333 75.52H413.098667a24.192 24.192 0 1 0 0 48.426667h74.666666v35.626667h-74.666666a24.192 24.192 0 1 0 0 48.426666h74.581333v62.250667c0 13.226667 10.837333 24.192 24.192 24.192 13.226667 0 24.192-10.794667 24.192-24.192v-62.293333h74.666667a24.192 24.192 0 1 0 0-48.426667h-74.666667v-35.584h74.837333zM775.082667 33.962667H249.002667c-117.845333 0-213.333333 95.957333-213.333334 214.272V776.96c0 118.357333 95.488 214.314667 213.333334 214.314667h526.08c117.76 0 213.205333-95.957333 213.205333-214.314667V248.234667c0-118.314667-95.445333-214.314667-213.205333-214.314667zM512 811.818667a299.136 299.136 0 0 1-299.221333-299.178667A299.136 299.136 0 0 1 512 213.461333a299.221333 299.221333 0 0 1 0 598.4z" p-id="2291"></path></svg>