<?xml version="1.0" standalone="no"?><!DOCTYPE svg PUBLIC "-//W3C//DTD SVG 1.1//EN" "http://www.w3.org/Graphics/SVG/1.1/DTD/svg11.dtd"><svg t="1615035362206" class="icon" viewBox="0 0 1024 1024" version="1.1" xmlns="http://www.w3.org/2000/svg" p-id="12478" xmlns:xlink="http://www.w3.org/1999/xlink" width="200" height="200"><defs><style type="text/css"></style></defs><path d="M390.637037 572.681481c4.740741 0 8.533333 4.740741 10.42963 11.377778 1.896296 4.740741 2.844444 12.325926 2.844444 19.911111s-0.948148 14.222222-2.844444 19.911111c-1.896296 7.585185-5.688889 11.377778-10.42963 11.377778-4.740741 0-8.533333-4.740741-10.42963-11.377778-1.896296-4.740741-2.844444-12.325926-2.844444-19.911111s0.948148-14.222222 2.844444-19.911111c0.948148-6.637037 4.740741-11.377778 10.42963-11.377778z m78.696296-286.34074c2.844444 0 5.688889 2.844444 7.585186 7.585185 0.948148 3.792593 1.896296 8.533333 1.896296 13.274074 0 4.740741-0.948148 9.481481-1.896296 13.274074-0.948148 1.896296-1.896296 3.792593-2.844445 4.740741h4.740741c4.740741-10.42963 4.740741-29.392593-0.948148-39.822222 25.6-3.792593 50.251852-3.792593 74.903703-0.948149l107.140741-60.681481 93.866667 7.585185-16.118519 19.911111h-33.185185l-0.948148 0.948148-61.62963 66.370371-4.74074 4.740741h43.614814l-31.288889 39.822222H618.192593l-1.896297 0.948148-14.222222 25.6H366.933333l39.822223-22.755556c4.740741-10.42963 5.688889-30.340741 0-40.77037 19.911111-2.844444 38.874074-3.792593 57.837037-2.844444-0.948148-0.948148-1.896296-2.844444-1.896297-4.740741-0.948148-3.792593-1.896296-8.533333-1.896296-13.274074 0-4.740741 0.948148-9.481481 1.896296-13.274074 0.948148-2.844444 3.792593-5.688889 6.637037-5.688889z m0 7.585185c0.948148 0 0.948148 0 0 0z m1.896297 12.325926c0-3.792593-0.948148-7.585185-0.948149-10.42963-0.948148 2.844444-0.948148 6.637037-0.948148 10.42963 0 4.740741 0 8.533333 0.948148 10.429629 0-1.896296 0.948148-5.688889 0.948149-10.429629z m-1.896297 13.274074c0.948148 0 0.948148 0 0 0z m-72.059259 7.585185c-2.844444 0-5.688889 2.844444-7.585185 7.585185-0.948148 2.844444-0.948148 7.585185-0.948148 13.274074 0 4.740741 0.948148 9.481481 1.896296 13.274074 1.896296 4.740741 3.792593 7.585185 7.585185 7.585186 2.844444 0 5.688889-2.844444 7.585185-7.585186 0.948148-3.792593 1.896296-8.533333 1.896297-13.274074 0-4.740741-0.948148-9.481481-1.896297-13.274074-2.844444-4.740741-4.740741-7.585185-8.533333-7.585185z m0 7.585185z m1.896296 13.274074c0-3.792593-0.948148-7.585185-0.948148-10.429629-0.948148 2.844444-0.948148 6.637037-0.948148 10.429629s0.948148 7.585185 0.948148 10.42963c0-2.844444 0.948148-6.637037 0.948148-10.42963z m-1.896296 13.274074s0-0.948148 0 0c0-0.948148 0 0 0 0z m416.237037 128.948149l98.607408 80.592592h61.629629l-33.185185-61.629629c15.17037-6.637037 29.392593-15.17037 46.459259-29.392593-15.17037-17.066667-33.185185-32.237037-52.148148-45.511111l24.651852-163.081482h-92.918519L784.118519 407.703704H154.548148c-9.481481 0.948148-29.392593 11.377778-32.237037 19.911111 3.792593 2.844444 12.325926 6.637037 18.962963 8.533333l-8.533333 15.170371c-9.481481-2.844444-18.962963-7.585185-26.548148-15.170371-45.511111 16.118519-75.851852 36.02963-75.851852 67.318519 5.688889 24.651852 54.992593 34.133333 124.207407 37.925926h226.607408l22.755555 12.325926 16.118519 17.066666c-5.688889 0.948148-11.377778 1.896296-17.066667 1.896296 8.533333 16.118519 8.533333 47.407407 0 62.577778 28.444444 4.740741 55.940741 6.637037 84.385185 4.740741l6.637037 7.585185c-7.585185 0.948148-14.222222 1.896296-21.807407 2.844445 8.533333 16.118519 8.533333 47.407407 0 62.577777 30.340741 4.740741 59.733333 6.637037 90.074074 4.740741l81.540741 84.385185h121.362963L745.244444 758.518519l-31.288888-0.948149h-1.896297l-0.948148-1.896296-44.562963-89.125926-1.896296-3.792592h35.081481l-32.237037-68.266667H632.414815l0.948148-3.792593 9.481481-48.355555V540.444444h105.244445c30.340741-2.844444 60.681481-3.792593 90.074074-7.585185l-30.340741-41.718518 0.948148-7.585185 99.555556 3.792592v2.844445h-94.814815zM615.348148 389.688889h24.651852l11.377778-21.807408h-23.703704l-12.325926 21.807408z m74.903704-72.059259l48.355555-60.681482h-26.548148l-55.94074 60.681482h34.133333zM459.851852 650.42963c4.740741 0 8.533333 4.740741 10.429629 11.377777 1.896296 4.740741 2.844444 12.325926 2.844445 19.911112s-0.948148 14.222222-2.844445 19.911111c-1.896296 6.637037-5.688889 11.377778-10.429629 11.377777-4.740741 0-8.533333-4.740741-10.42963-11.377777-1.896296-4.740741-2.844444-12.325926-2.844444-19.911111s0.948148-14.222222 2.844444-19.911112c0.948148-7.585185 4.740741-11.377778 10.42963-11.377777z m0 12.325926c-0.948148-0.948148-0.948148-0.948148 0 0 0-0.948148 0-0.948148 0 0z m1.896296 18.962963c0 6.637037-0.948148 12.325926-1.896296 16.118518-0.948148-3.792593-1.896296-9.481481-1.896296-16.118518s0.948148-12.325926 1.896296-16.118519c0.948148 3.792593 1.896296 9.481481 1.896296 16.118519z m-1.896296 18.962962c-0.948148 0-0.948148 0 0 0z m-69.214815-115.674074s0-0.948148 0 0c-0.948148-0.948148-0.948148 0 0 0z m1.896296 18.962963c0-6.637037-0.948148-12.325926-1.896296-16.118518-0.948148 3.792593-1.896296 9.481481-1.896296 16.118518s0.948148 12.325926 1.896296 16.118519c0.948148-3.792593 1.896296-9.481481 1.896296-16.118519z m-1.896296 19.911111s0-0.948148 0 0c-0.948148-0.948148-0.948148 0 0 0z m355.555556 127.051852l-26.548149-0.948148-41.718518-83.437037h28.444444l39.822223 84.385185z m-73.955556-161.185185h-26.548148l8.533333-42.666667h25.6l-7.585185 42.666667zM163.081481 452.266667h-24.651851l8.533333-15.170371h19.911111l-3.792593 15.170371z m9.481482-15.170371h21.807407c-1.896296 11.377778-0.948148 3.792593-2.844444 15.170371h-23.703704l4.740741-15.170371z" p-id="12479"></path></svg>