<?xml version="1.0" standalone="no"?><!DOCTYPE svg PUBLIC "-//W3C//DTD SVG 1.1//EN" "http://www.w3.org/Graphics/SVG/1.1/DTD/svg11.dtd"><svg t="1615035347746" class="icon" viewBox="0 0 1024 1024" version="1.1" xmlns="http://www.w3.org/2000/svg" p-id="12209" xmlns:xlink="http://www.w3.org/1999/xlink" width="200" height="200"><defs><style type="text/css"></style></defs><path d="M893.58976 592.1984c-2.33984-12.72576-10.89536-21.27488-21.27616-21.27488H722.96704c0.02688-1.69216 0.05376-3.38688 0.05376-5.08672 0-74.25536-26.89152-144.86528-72.79872-193.26848 40.34176-10.86464 60.75392-25.94048 60.75392-44.92416 0-33.0432-65.6704-51.7632-141.04448-58.03008-3.31904-72.2304-15.41504-215.48032-58.9632-215.48032-43.54688 0-55.64928 143.24096-58.976 215.4816-75.37408 6.26688-141.04704 24.98688-141.04704 58.0288 0 18.98752 20.42112 34.05952 60.76544 44.92416-45.90464 48.40192-72.79744 119.01312-72.79744 193.26848 0 1.69984 0.02688 3.39328 0.05376 5.08672H148.09856c-10.3872 0-18.93248 8.54912-21.2736 21.27488-3.1744 17.28384 5.61152 39.28064 32.33152 49.7664 8.064 4.25984 16.44032 8.28416 25.59232 12.29312 0.4992 0.2176 1.00992 0.40064 1.53088 0.54528l49.98144 13.87392c-25.04832 1.98912-44.82688 22.99008-44.82688 48.54272 0 26.86336 21.85344 48.72064 48.71552 48.72064 26.86464 0 48.71552-21.85728 48.71552-48.72064 0-16.30848-8.06272-30.7584-20.4032-39.6032l41.83936 11.61344a11.4944 11.4944 0 0 0 1.42976 0.3008c4.76672 0.68608 9.59744 1.29664 14.432 1.86752 36.40576 77.96864 105.59744 130.73664 184.80384 130.73664 79.26784 0 148.50176-52.84608 184.88448-130.90944 4.1024-0.49536 8.36608-1.0496 12.82432-1.69344a11.5584 11.5584 0 0 0 1.42592-0.3008l41.84832-11.616c-12.34304 8.8448-20.40832 23.296-20.40832 39.60576 0 26.86336 21.856 48.72064 48.71552 48.72064s48.71552-21.85728 48.71552-48.72064c0-25.55264-19.78112-46.5536-44.82816-48.54272l49.98272-13.87392a11.3152 11.3152 0 0 0 1.52832-0.54528c9.0944-3.9808 17.47456-8.00512 25.58976-12.29312 26.72128-10.48448 35.51744-32.48384 32.34432-49.76768z m-653.44 150.816c-14.2208 0-25.78944-11.56992-25.78944-25.79456 0-14.21952 11.56864-25.7856 25.78944-25.7856 14.22208 0 25.78944 11.5648 25.78944 25.7856 0 14.22464-11.56736 25.79456-25.78944 25.79456z m565.89952-25.79456c0 14.22464-11.5712 25.79456-25.792 25.79456s-25.792-11.56992-25.792-25.79456c0-14.21952 11.5712-25.7856 25.792-25.7856s25.792 11.5648 25.792 25.7856zM475.80672 268.06144c-0.26496 0.0128-0.53248 0.02176-0.79744 0.03456 6.1696-130.22336 26.56256-184.5248 35.95648-190.76736 9.3888 6.24768 29.78048 60.55296 35.94368 190.76736l-0.6528-0.02816M316.07808 666.99392l-0.352-0.04992-122.52416-34.0096c-8.55808-3.76704-16.384-7.5456-23.8976-11.54048a11.26912 11.26912 0 0 0-1.30048-0.59008c-10.16064-3.86816-16.71168-10.24896-18.43712-17.97376-0.9408-4.20992-0.1408-7.46112 0.5696-8.98048H300.1856a304.05888 304.05888 0 0 0 3.75936 27.5328c0.06272 0.3456 0.12288 0.6912 0.18688 1.03552 0.49536 2.64192 1.0176 5.27232 1.57952 7.8848 0.23808 1.1136 0.49664 2.21952 0.74752 3.33056 0.2944 1.29408 0.59392 2.5856 0.90496 3.87072 2.40128 10.01984 5.28896 19.8656 8.71424 29.48992z m194.88896 132.2176c-72.16256 0-135.008-50.13632-166.88128-123.6544a256.58368 256.58368 0 0 1-1.93536-4.57856c-0.16384-0.39808-0.32256-0.8-0.48384-1.20064a261.7856 261.7856 0 0 1-1.63712-4.13568c-0.20352-0.52608-0.40064-1.05728-0.6016-1.58592a257.36448 257.36448 0 0 1-5.08544-14.78912c-0.21248-0.68224-0.42624-1.36448-0.63232-2.05056-0.37632-1.24672-0.7424-2.49728-1.1008-3.75168-0.17152-0.59648-0.3456-1.19296-0.512-1.79072a270.83136 270.83136 0 0 1-1.19808-4.45056c-0.09472-0.3648-0.19456-0.72704-0.288-1.09312-4.48512-17.52064-7.25888-35.69536-8.28032-54.37184-0.01536-0.28928-0.05248-0.57088-0.08832-0.85376a290.67776 290.67776 0 0 1-0.40448-15.06816c0-75.79392 30.1184-147.17952 80.56448-190.95296a11.4624 11.4624 0 0 0-5.22752-19.89248c-52.55808-10.69696-63.30368-24.29312-63.30368-27.3472 0-9.5552 43.7632-30.05184 128.99968-35.90528 0.04864 0 0.096 0.0064 0.14464 0.0064 0.25728 0 0.5184-0.00896 0.7808-0.0256 30.67904-2.08896 63.58784-2.09792 94.33728-0.00256 0.26496 0.01664 0.5184 0.0256 0.77696 0.0256 0.03968-0.00256 0.08064 0 0.11392 0l0.05504-0.00256c85.21984 5.85472 128.97664 26.3488 128.97664 35.904 0 3.05408-10.74304 16.6464-63.29856 27.3472a11.4688 11.4688 0 0 0-8.79616 8.32128 11.47648 11.47648 0 0 0 3.57504 11.5712c50.44608 43.77344 80.5632 115.15904 80.5632 190.95296 0 5.04704-0.14464 10.05312-0.40192 15.0208a10.95552 10.95552 0 0 0-0.09344 0.90112c-1.01504 18.61376-3.77344 36.73216-8.23424 54.20544-0.13184 0.51072-0.2688 1.0176-0.40192 1.52704a255.90272 255.90272 0 0 1-1.0688 3.97824c-0.20864 0.75264-0.42752 1.49888-0.64256 2.24768-0.3136 1.09184-0.62976 2.1824-0.95744 3.26912-0.2496 0.82816-0.50688 1.65376-0.76544 2.47936a228.31488 228.31488 0 0 1-1.78944 5.52448 280.2304 280.2304 0 0 1-1.88416 5.41056c-0.3904 1.08032-0.7872 2.15552-1.1904 3.22816a241.2928 241.2928 0 0 1-0.80128 2.11328c-0.44672 1.15584-0.90368 2.30784-1.36576 3.45728-0.2496 0.6208-0.49664 1.24544-0.75136 1.86368-0.50432 1.22624-1.02272 2.4448-1.54496 3.66336-31.7632 73.96992-94.80576 124.48512-167.23968 124.48512z m359.87456-196.38144c-1.72672 7.72224-8.27264 14.1056-18.43456 17.97376-0.45056 0.1664-0.87936 0.36608-1.30304 0.58624-7.56736 4.02432-15.39968 7.8016-23.90272 11.54432l-121.19424 33.63968c3.39328-9.58464 6.25536-19.38816 8.63744-29.36576 0.27904-1.16224 0.54912-2.33216 0.81408-3.50208 0.27264-1.20064 0.55296-2.39872 0.81024-3.60448a300.2496 300.2496 0 0 0 1.53728-7.70432c0.0832-0.44928 0.16256-0.89728 0.2432-1.34656a304.47616 304.47616 0 0 0 3.6992-27.2H870.272c0.71552 1.51808 1.51168 4.76672 0.5696 8.9792z" fill="#333333" p-id="12210"></path><path d="M495.14112 516.7296a11.45984 11.45984 0 0 0 10.62656-11.4304v-120.64256a11.45344 11.45344 0 0 0-3.59168-8.33408c-2.28992-2.16448-5.408-3.33312-8.52608-3.10912-4.10752 0.2368-101.0112 6.9504-138.51904 110.44352a11.45984 11.45984 0 0 0 1.92256 11.19104l51.09376 62.0928a11.46624 11.46624 0 0 0 9.25056 4.15872 11.49568 11.49568 0 0 0 8.94592-4.80512c0.26112-0.3648 26.5344-36.46976 68.79744-39.5648z m-77.9648 15.09888l-38.17856-46.39616c26.21312-64.71424 79.74912-82.67648 103.84512-87.56096v97.3248c-31.28192 5.56032-53.80352 24.30464-65.66656 36.63232zM514.09024 582.112c-47.40352 0-85.96864 38.5664-85.96864 85.9712 0 47.40224 38.56512 85.96992 85.96864 85.96992 47.40736 0 85.96608-38.56768 85.96608-85.96992 0-47.4048-38.55872-85.9712-85.96608-85.9712z m0 149.01632c-34.76352 0-63.04256-28.28416-63.04256-63.04512 0-34.76224 28.27904-63.04512 63.04256-63.04512 34.7584 0 63.04384 28.28288 63.04384 63.04512 0 34.76096-28.28416 63.04512-63.04384 63.04512zM666.80064 483.65056c-37.58976-103.488-134.65344-110.2016-138.76992-110.4384-3.13472-0.22272-6.23104 0.94464-8.51968 3.10912a11.45856 11.45856 0 0 0-3.59808 8.33408v120.64256a11.45856 11.45856 0 0 0 10.62912 11.4304c42.17984 3.08096 68.4736 38.912 68.9472 39.56992a11.47648 11.47648 0 0 0 9.344 4.81792 11.46624 11.46624 0 0 0 8.84224-4.17024l51.19616-62.09152a11.47904 11.47904 0 0 0 1.92896-11.20384z m-62.14144 48.19712c-11.87584-12.32512-34.46656-31.09248-65.81888-36.65408v-97.2288c24.11264 5.05856 77.99936 23.32544 104.0896 87.46496l-38.27072 46.41792z" fill="#333333" p-id="12211"></path></svg>