<?xml version="1.0" standalone="no"?><!DOCTYPE svg PUBLIC "-//W3C//DTD SVG 1.1//EN" "http://www.w3.org/Graphics/SVG/1.1/DTD/svg11.dtd"><svg t="1615035255305" class="icon" viewBox="0 0 1024 1024" version="1.1" xmlns="http://www.w3.org/2000/svg" p-id="7202" xmlns:xlink="http://www.w3.org/1999/xlink" width="200" height="200"><defs><style type="text/css"></style></defs><path d="M94.939202 833.966574h107.886712v53.943356H94.939202z" p-id="7203"></path><path d="M77.678687 799.443421h666.307261l0.465065 17.262638 0.465066 17.262639 1.985554 73.896579 0.690165 25.892895 25.892896-0.707154 34.523153-0.932255 25.875907-0.707154-0.242089-8.976402-0.448076-16.899505-0.016989-0.363134-0.465066-17.262638h60.58806v-53.943356H831.256877l-0.465065-17.262638-0.465066-17.262638h74.811845l4.005085 17.262638 1.416433 6.145661 2.571663 11.116977 14.688851 63.401812 6.249717 26.963184 5.852605 25.219719 25.219719-5.852606 33.643988-7.78507 25.219719-5.852605-5.852606-25.219719-16.415327-70.876838-4.005085-17.262639-4.005085-17.262638h7.458037v-86.308945h-27.445237l-4.005085-17.262638-4.005085-17.262638h35.455407V74.450835H0V678.613447h740.734736l0.465066 17.262638 0.465065 17.262639H0v86.308944h77.678687z m689.416134-103.571583l-0.465065-17.262638-10.944968-406.96208 26.997161-0.724144 8.509213 36.714695 9.976612 370.971529 0.465065 17.262638 0.465066 17.262639 1.278399 47.470662 0.465066 17.262639 0.465065 17.262638 0.121045 4.315129 0.465065 17.262638 0.465066 17.262638 1.45041 53.943356 0.465065 17.262639 0.033978 1.053299-34.523153 0.932254-0.050967-2.002542-1.932464-71.186882-0.465065-17.262638-0.465066-17.262639-0.58611-21.577767-0.465065-17.262638-1.259287-47.470663-0.465066-17.264762z m176.068718 0l4.005085 17.262639 19.989324 86.308944 4.005085 17.262638 4.005085 17.262639 17.77867 76.729444-33.643988 7.785069-19.592213-84.51239-4.005085-17.262638-4.005085-17.262638-3.90103-16.812438-5.10935-22.025844-10.978944-47.470663-4.005085-17.262638-4.005085-17.262639-86.706056-374.269459-13.87764-59.880905-11.359067-49.178026-1.22531-5.317462 33.643988-7.78507 3.019741 13.102532 111.959751 483.32839 4.007209 17.260515zM642.361694 636.078c-4.988306 0-10.511755-0.208112-16.623439-0.622211-94.939202-6.472693-155.355251-25.270685-157.512815-96.786722-0.155022-4.93734 0.172011-9.942634 0.707155-14.947929 22.318899 57.706352 94.300002 68.218107 162.450155 72.862392 6.438716 0.448077 12.238232 0.656188 17.502603 0.656189 20.110368 0 33.469854-3.244841 42.429268-8.906324-2.295597 27.634237 0.828199 47.744605-48.952927 47.744605z m-276.189472 0c-4.988306 0-10.511755-0.208112-16.623439-0.622211-94.939202-6.472693-155.355251-25.270685-157.512815-96.786722-0.155022-4.93734 0.172011-9.942634 0.707155-14.947929 22.318899 57.706352 94.300002 68.218107 162.450155 72.862392 6.438716 0.448077 12.238232 0.656188 17.502603 0.656189 20.110368 0 33.469854-3.244841 42.429268-8.906324-2.293474 27.634237 0.830322 47.744605-48.952927 47.744605zM67.355931 195.282933a110.602779 110.602779 0 0 1 5.10935-9.320423 113.992024 113.992024 0 0 1 5.368428-7.940092c2.692708-3.641952 5.52345-7.162859 8.647246-10.390711 2.174553-2.244631 4.763206-4.574206 7.525992-6.869804 12.013131-10.012712 29.483881-19.488157 52.890057-19.488157 18.504937 0 38.027072 5.954538 58.13744 17.744692 0.794222 0.448077 1.898487 1.174344 2.813753 1.743465 6.249716 3.813962 15.034996 9.753635 24.33843 17.262639 6.455704 5.196417 12.998476 11.012922 18.885059 17.262638 9.114435 9.666568 16.570349 20.231413 19.212091 30.554169 0.501167 1.951576 0.81121 3.850063 0.932254 5.678471 0.276066 3.988096-0.431088 7.698003-1.951576 11.339955-0.552133 1.329365-1.138243 2.641742-1.932464 3.951995-0.932255 1.535353-1.692499 3.038853-2.503709 4.557218-9.700545 18.194893-10.978945 35.351352-11.945177 49.333048-1.571454 22.837054-1.985554 28.965726-35.559463 28.965726-4.729228 0-9.959623-0.188999-15.759139-0.58611-105.729147-7.215948-143.790196-29.258781-145.446594-84.255436-0.172011-5.92056 0.327032-11.945177 1.259287-17.952804a109.298897 109.298897 0 0 1 5.264372-20.420412 118.965465 118.965465 0 0 1 4.714363-11.170067z m303.927765-17.262639c2.692708-3.641952 5.52345-7.162859 8.647246-10.390711 2.174553-2.244631 4.763206-4.574206 7.525992-6.869803 12.013131-10.012712 29.483881-19.488157 52.890057-19.488158 18.504937 0 38.027072 5.954538 58.13744 17.744693 0.794222 0.448077 1.898487 1.174344 2.813753 1.743465 6.249716 3.813962 15.034996 9.753635 24.33843 17.262638 6.455704 5.196417 12.998476 11.012922 18.885058 17.262638 9.114435 9.666568 16.570349 20.231413 19.212092 30.554169 0.501167 1.951576 0.81121 3.850063 0.932254 5.678472 0.276066 3.988096-0.431088 7.698003-1.951576 11.339954-0.552133 1.329365-1.138243 2.641742-1.932464 3.951996-0.932255 1.535353-1.692499 3.038853-2.503709 4.557217-9.700545 18.194893-10.978945 35.351352-11.945177 49.333049-1.571454 22.837054-1.985554 28.965726-35.559463 28.965726-4.729228 0-9.959623-0.188999-15.759139-0.58611-105.729147-7.215948-143.790196-29.258781-145.446594-84.255436-0.172011-5.92056 0.327032-11.945177 1.259287-17.952804a109.298897 109.298897 0 0 1 5.264372-20.420413 113.134095 113.134095 0 0 1 4.695251-11.167943 110.602779 110.602779 0 0 1 5.10935-9.320423 108.141542 108.141542 0 0 1 5.38754-7.942216z m180.902002 182.645467c-19.558236 4.833284-37.578995 14.964917-52.735035 30.605135-0.881289 0.915266-1.656398 1.932464-2.520698 2.881708-3.055842-0.104056-5.869594-0.121044-9.286446-0.346145-94.939202-6.472693-155.355251-25.270685-157.512815-96.786722-0.155022-4.93734 0.172011-9.942634 0.707155-14.947929 22.318899 57.706352 94.300002 68.218107 162.450155 72.862392 6.438716 0.448077 12.238232 0.656188 17.502603 0.656188 20.110368 0 33.469854-3.244841 42.429268-8.906323-0.394987 4.903362-0.637076 9.598613-1.034187 13.981696z m-127.563869 123.853962c-0.552133 1.329365-1.138243 2.641742-1.932464 3.951995-0.932255 1.535353-1.692499 3.038853-2.503709 4.557218-9.700545 18.194893-10.978945 35.351352-11.945176 49.333048-1.571454 22.837054-1.985554 28.965726-35.559464 28.965727-4.729228 0-9.959623-0.188999-15.759139-0.58611-105.729147-7.215948-143.790196-29.258781-145.446594-84.255436-0.172011-5.92056 0.327032-11.945177 1.259287-17.952805a109.298897 109.298897 0 0 1 5.264372-20.420412 114.040867 114.040867 0 0 1 9.787613-20.507479c4.056051-6.627715 8.717324-12.843454 14.034786-18.313814 0.656188-0.673177 1.433421-1.380332 2.157564-2.070497 5.816505-5.644494 13.342497-11.531077 22.749987-16.122272 9.838578-4.799307 21.628733-8.182181 35.506374-8.182181 18.504937 0 38.027072 5.954538 58.13744 17.744693 15.725161 9.080458 58.103463 38.804304 65.249333 66.820787 0.501167 1.951576 0.81121 3.850063 0.932255 5.678471 0.293055 4.005085-0.414099 7.717115-1.932465 11.359067z m276.187349 0c-0.552133 1.329365-1.138243 2.641742-1.932464 3.951995-0.932255 1.535353-1.692499 3.038853-2.503709 4.557218-9.700545 18.194893-10.978945 35.351352-11.945177 49.333048-1.571454 22.837054-1.985554 28.965726-35.559463 28.965727-4.729228 0-9.959623-0.188999-15.759139-0.58611-105.729147-7.215948-143.790196-29.258781-145.446594-84.255436-0.172011-5.92056 0.327032-11.945177 1.259287-17.952805a109.298897 109.298897 0 0 1 5.264372-20.420412 114.040867 114.040867 0 0 1 9.787612-20.507479 106.175101 106.175101 0 0 1 12.410242-16.468417c0.552133-0.605222 1.053299-1.278399 1.622421-1.864509a96.788846 96.788846 0 0 1 9.303434-8.354191 83.84346 83.84346 0 0 1 25.236708-13.722619 80.125059 80.125059 0 0 1 11.393044-2.881708c4.591195-0.828199 9.356524-1.416432 14.499851-1.416432 18.504937 0 38.027072 5.954538 58.13744 17.744693 15.725161 9.080458 58.103463 38.804304 65.249333 66.820787 0.501167 1.951576 0.81121 3.850063 0.932255 5.678471 0.27819 4.024197-0.431088 7.736227-1.949453 11.378179z m-663.421306-202.46278c22.318899 57.706352 94.300002 68.218107 162.450155 72.862392 6.438716 0.448077 12.238232 0.656188 17.502603 0.656188 20.110368 0 33.469854-3.244841 42.429268-8.906324-0.622211 7.353982-0.845188 14.172819-1.794431 20.231413a112.288907 112.288907 0 0 0-34.731265 24.374531c-0.845188 0.881289-1.588443 1.847521-2.399653 2.743675a135.489095 135.489095 0 0 1-10.029701 0.397111c-4.988306 0-10.511755-0.208112-16.623439-0.622211-94.939202-6.472693-155.355251-25.270685-157.512815-96.786723-0.152898-4.939463 0.176258-9.944758 0.709278-14.950052z m790.622041 431.077534l-0.465066-17.262639-0.465065-17.262638h50.059315l4.005085 17.262638 4.005085 17.262639h-57.139354z" p-id="7204"></path><path d="M191.985002 279.432189c40.94488-4.315129 17.313604-21.577767 17.313605-43.96462S157.168794 195.282933 157.168794 195.282933c-8.320214-3.850063-15.708173-3.26183-22.112911 0-15.950262 8.112102-25.633818 33.314832-27.169171 51.785791-2.157564 25.890772 43.15341 36.680717 84.09829 32.363465zM485.434989 279.432189c40.94488-4.315129 17.313604-21.577767 17.313604-43.96462s-52.129813-40.184636-52.129812-40.184636c-8.320214-3.850063-15.708173-3.26183-22.112911 0-15.933273 8.112102-25.616829 33.314832-27.152183 51.785791-2.176677 25.890772 43.136422 36.680717 84.081302 32.363465zM588.711393 436.947128c-29.016692-13.429564-47.124518 25.892896-49.282082 51.785792-2.157564 25.892896 43.15341 36.680717 84.09829 32.365588 40.94488-4.315129 17.313604-21.577767 17.313605-43.96462s-52.129813-40.18676-52.129813-40.18676zM312.524045 436.947128c-29.016692-13.429564-47.124518 25.892896-49.282083 51.785792-2.157564 25.892896 43.15341 36.680717 84.098291 32.365588 40.94488-4.315129 17.313604-21.577767 17.313604-43.96462s-52.129813-40.18676-52.129812-40.18676z" p-id="7205"></path></svg>