<?xml version="1.0" standalone="no"?><!DOCTYPE svg PUBLIC "-//W3C//DTD SVG 1.1//EN" "http://www.w3.org/Graphics/SVG/1.1/DTD/svg11.dtd"><svg t="1615035245460" class="icon" viewBox="0 0 1024 1024" version="1.1" xmlns="http://www.w3.org/2000/svg" p-id="6931" xmlns:xlink="http://www.w3.org/1999/xlink" width="200" height="200"><defs><style type="text/css"></style></defs><path d="M515.1 494.8c-0.6-52.8-35.9-95.6-79.3-95.6s-78.7 42.8-79.3 95.6H256.1v15.4c0 94.9 80.3 174.8 189.1 198.6-7.5 5.6-12.4 14.6-12.4 24.7v3.9c0 16.9 13.5 30.7 30.1 30.7h98.4c16.6 0 30.1-13.8 30.1-30.7v-3.9c0-10.2-4.9-19.1-12.4-24.7C687.8 685 768.1 605.1 768.1 510.2v-15.4h-253zM435.8 430c26.8 0 48.6 29 49.1 64.9h-98.2c0.5-35.9 22.3-64.9 49.1-64.9z m125.4 307.4h-98.3v-3.9h98.4l-0.1 3.9z m-49.1-52c-117.9 0-215-70.4-225-159.9h450c-10 89.5-107.1 159.9-225 159.9z" p-id="6932"></path><path d="M435.8 338.2c62.6 0 113.4 66.3 113.4 147.7h30.1c0-44.9-13.5-85.9-35.7-117.3 4.2-0.4 8.5-0.8 12.7-0.8 74.6 0 135.4 55.3 135.4 123.3h30.1c0-34.7-12.6-66.7-33.5-92.5l50.1-31.5c5.7-4.3 6.2-13.4 1.2-20.1-5-6.8-13.7-8.7-19.3-4.4l-54 33.9c-3.8-3.1-7.7-6.1-11.8-8.9 1.6-1.4 3-3.2 3.9-5.3l35.9-84.6c3.3-7.8-0.2-16.8-7.8-20.2-7.6-3.4-16.5 0.2-19.8 8l-35.9 84.6c-0.5 1.1-0.5 2.3-0.7 3.5-22.3-10.4-47.3-16.4-73.8-16.4-12.5 0-24.8 1.7-36.9 4.2-23.6-21.2-52.5-33.8-83.7-33.8-79.2 0-143.6 80-143.6 178.4h30.1c0.2-81.5 51-147.8 113.6-147.8z" p-id="6933"></path></svg>