<?xml version="1.0" standalone="no"?><!DOCTYPE svg PUBLIC "-//W3C//DTD SVG 1.1//EN" "http://www.w3.org/Graphics/SVG/1.1/DTD/svg11.dtd"><svg t="1615035260981" class="icon" viewBox="0 0 1024 1024" version="1.1" xmlns="http://www.w3.org/2000/svg" p-id="7338" xmlns:xlink="http://www.w3.org/1999/xlink" width="200" height="200"><defs><style type="text/css"></style></defs><path d="M744.8 1020c-21.6 0-44-6.4-63.2-18.4-264-167.2-492-395.2-659.2-659.2C5.6 315.2 0 282.4 7.2 252.8c7.2-27.2 24-49.6 47.2-63.2 50.4-28 114.4-11.2 146.4 39.2C352 466.4 557.6 672 795.2 822.4c50.4 32 67.2 96 39.2 146.4-13.6 24-36 40.8-63.2 47.2-8.8 3.2-17.6 4-26.4 4zM107.2 208c-12.8 0-24.8 3.2-36 9.6-16 8.8-27.2 24-32 43.2-5.6 21.6-1.6 44.8 11.2 64.8 164.8 260 389.6 484 649.6 649.6 20 12.8 43.2 16.8 64.8 11.2 18.4-4.8 33.6-16 43.2-32 20-35.2 7.2-81.6-28-104C536.8 696 328 487.2 174.4 245.6c-15.2-24-41.6-37.6-67.2-37.6z" p-id="7339"></path><path d="M890.4 976.8c-24 0-48.8-7.2-70.4-20.8-6.4-4-8.8-11.2-7.2-17.6 9.6-32.8-4.8-69.6-35.2-88.8C536.8 696 328 487.2 174.4 245.6c-19.2-29.6-55.2-44-88.8-34.4-7.2 1.6-14.4-0.8-17.6-7.2-19.2-30.4-25.6-67.2-16.8-100 8-30.4 26.4-56 52.8-70.4 56-31.2 128.8-12 164 44C440 348.8 674.4 583.2 945.6 755.2c56 36 75.2 108 44 164-15.2 26.4-40 45.6-70.4 52.8-8.8 3.2-19.2 4.8-28.8 4.8z m-44-42.4c20.8 10.4 44 12.8 65.6 7.2 21.6-5.6 40-19.2 50.4-37.6 23.2-41.6 8.8-95.2-32.8-121.6-275.2-174.4-513.6-412.8-688-688-26.4-41.6-80-56-121.6-32.8-18.4 10.4-32 28-37.6 50.4-5.6 21.6-2.4 44.8 7.2 65.6 43.2-7.2 87.2 12.8 112 51.2C352 466.4 557.6 672 795.2 822.4c38.4 24 58.4 68.8 51.2 112z" p-id="7340"></path><path d="M976 825.6h-2.4c-4.8-0.8-8.8-4-11.2-8-8-14.4-19.2-26.4-32.8-35.2-275.2-174.4-513.6-412.8-688-688-8.8-13.6-20.8-24.8-35.2-32.8-4-2.4-7.2-6.4-8-11.2-0.8-4.8 0.8-9.6 4-13.6 7.2-8 15.2-14.4 24.8-20C277.6-11.2 341.6 5.6 373.6 56c150.4 237.6 356 443.2 593.6 593.6 50.4 32 67.2 96 39.2 146.4-4.8 9.6-12 17.6-20 24.8-2.4 3.2-6.4 4.8-10.4 4.8zM240.8 46.4c11.2 8.8 20 19.2 28 31.2 172 271.2 406.4 505.6 677.6 677.6 12 7.2 22.4 16.8 31.2 28 0-0.8 0.8-0.8 0.8-1.6 20-35.2 7.2-81.6-28-104C708.8 524 500 315.2 346.4 73.6c-22.4-36-68.8-48-104-28 0 0-0.8 0.8-1.6 0.8z" p-id="7341"></path><path d="M925.6 846.4c-3.2 0-5.6-1.6-7.2-4-12-24-42.4-33.6-71.2-42.4l-4-1.6c-31.2-10.4-76-28-98.4-65.6-4-7.2-7.2-14.4-10.4-20.8-4-10.4-8.8-20-15.2-28-13.6-16.8-36-23.2-59.2-29.6-24-7.2-48.8-13.6-66.4-32.8-13.6-15.2-18.4-33.6-24-52-3.2-17.6-8-33.6-17.6-45.6-14.4-17.6-38.4-25.6-63.2-33.6-29.6-9.6-60.8-19.2-75.2-48-6.4-12-8-24.8-9.6-36.8-1.6-8.8-2.4-17.6-5.6-25.6-9.6-26.4-33.6-42.4-59.2-59.2-21.6-14.4-44-29.6-58.4-51.2-10.4-16-16-34.4-20.8-52-3.2-10.4-6.4-21.6-10.4-32-10.4-24-33.6-47.2-57.6-40.8-4 0.8-8.8-1.6-9.6-5.6-0.8-4 1.6-8.8 5.6-9.6 32.8-8.8 63.2 18.4 76 49.6 4.8 11.2 8 22.4 11.2 33.6 4.8 17.6 9.6 33.6 18.4 47.2 12.8 19.2 33.6 33.6 53.6 47.2 26.4 17.6 53.6 36 64.8 67.2 3.2 9.6 4.8 19.2 6.4 28.8 1.6 11.2 3.2 22.4 8 32 12 23.2 38.4 31.2 66.4 40 26.4 8 53.6 16.8 71.2 38.4 12 14.4 17.6 32.8 22.4 50.4 4.8 17.6 9.6 33.6 20.8 46.4 14.4 16 36 21.6 58.4 28 24.8 7.2 50.4 14.4 67.2 34.4 8 9.6 12.8 20.8 17.6 32 3.2 7.2 5.6 13.6 8.8 19.2 19.2 33.6 60 49.6 88.8 58.4l4 1.6c30.4 9.6 64.8 20.8 80 50.4 2.4 4 0.8 8.8-3.2 10.4 0 1.6-1.6 1.6-3.2 1.6zM144.8 295.2c-1.6 0-4-0.8-5.6-2.4l-4.8-4.8c-3.2-3.2-3.2-8 0-11.2 3.2-3.2 8-3.2 11.2 0l5.6 4.8c3.2 3.2 3.2 8 0 11.2-1.6 1.6-4 2.4-6.4 2.4zM173.6 361.6c-3.2 0-5.6-1.6-7.2-4.8l-4.8-10.4c-1.6-4 0-8.8 4-10.4 4-1.6 8.8 0 10.4 4l4.8 10.4c1.6 4 0 8.8-4 10.4-0.8 0-2.4 0.8-3.2 0.8zM232 438.4c-0.8 0-2.4 0-3.2-0.8l-23.2-10.4c-4-1.6-5.6-6.4-4-10.4 1.6-4 6.4-5.6 10.4-4l23.2 10.4c4 1.6 5.6 6.4 4 10.4-0.8 2.4-4 4.8-7.2 4.8zM296 542.4c-3.2 0-6.4-2.4-7.2-5.6-0.8-2.4-2.4-4.8-4.8-6.4-4-2.4-4.8-7.2-2.4-11.2 2.4-4 7.2-4.8 11.2-2.4 4.8 3.2 8.8 8 11.2 14.4 1.6 4-0.8 8.8-4.8 10.4-1.6 0.8-2.4 0.8-3.2 0.8zM446.4 687.2c-0.8 0-2.4 0-3.2-0.8l-17.6-7.2c-4-1.6-6.4-6.4-4-10.4 1.6-4 6.4-6.4 10.4-4l17.6 7.2c4 1.6 6.4 6.4 4 10.4-0.8 3.2-4 4.8-7.2 4.8zM545.6 738.4c-4.8 0-8-3.2-8-8V728c0-4.8 3.2-8 8-8s8 3.2 8 8v2.4c0 4.8-4 8-8 8zM578.4 802.4c-8.8 0-17.6-4-23.2-10.4-3.2-3.2-3.2-8 0.8-11.2 3.2-3.2 8-3.2 11.2 0.8 3.2 3.2 7.2 5.6 12 5.6s8 4 8 8c-0.8 4-4 7.2-8.8 7.2z" p-id="7342"></path><path d="M691.2 845.6c-2.4 0-4-0.8-5.6-2.4l-8-8c-3.2-3.2-3.2-8 0-11.2 3.2-3.2 8-3.2 11.2 0l8 8c3.2 3.2 3.2 8 0 11.2-1.6 1.6-4 2.4-5.6 2.4z" p-id="7343"></path><path d="M716 904.8c-4.8 0-8.8-2.4-11.2-6.4-2.4-4-2.4-8-0.8-12 1.6-4 6.4-5.6 10.4-4 3.2 1.6 4.8 4.8 4.8 8 3.2 1.6 4.8 4 4.8 8 0 3.2-3.2 6.4-8 6.4z" p-id="7344"></path></svg>